<svg width="135" height="51" viewBox="0 0 135 51" fill="none" xmlns="http://www.w3.org/2000/svg">
<g clip-path="url(#clip0_8932_13512)">
<path d="M7.27316 33.9254C7.4798 33.5658 7.95211 33.4715 8.27862 33.7246L16.8437 40.3644C17.2735 40.6976 17.1662 41.3795 16.6554 41.5615L1.78459 46.862C0.946868 47.1606 0.194603 46.2434 0.640637 45.4672L7.27316 33.9254Z" fill="#FF3459"/>
<path d="M31.8933 13.9535C32.016 13.7402 32.0167 13.477 31.895 13.2632L26.3656 3.54471C25.9992 2.90062 25.0801 2.8988 24.7111 3.54144L9.5611 29.9298C9.35222 30.2937 9.51169 30.76 9.8983 30.916L49.1753 46.762C50.0181 47.1021 50.8112 46.1745 50.3559 45.3814L43.666 33.7289C43.5939 33.6034 43.4846 33.5041 43.3534 33.445L25.3387 25.3357L31.8933 13.9535Z" fill="#FF3459"/>
</g>
<path d="M131.324 32.6411C129.888 32.6411 128.769 32.2744 127.967 31.5409C127.166 30.7921 126.765 29.6843 126.765 28.2173V17.3984H130.303V28.1715C130.303 28.691 130.44 29.096 130.712 29.3863C130.984 29.6614 131.354 29.7989 131.823 29.7989C132.382 29.7989 132.859 29.6461 133.252 29.3405L134.204 31.8618C133.842 32.1216 133.403 32.3202 132.889 32.4578C132.39 32.58 131.868 32.6411 131.324 32.6411ZM124.883 23.1517V20.4011H133.343V23.1517H124.883Z" fill="#322F40"/>
<path d="M116.336 32.2965V19.6897C116.336 18.2992 116.744 17.1913 117.56 16.3661C118.377 15.5257 119.541 15.1055 121.053 15.1055C121.567 15.1055 122.059 15.159 122.527 15.2659C123.011 15.3729 123.419 15.541 123.752 15.7702L122.822 18.3603C122.626 18.2228 122.406 18.1158 122.164 18.0394C121.923 17.963 121.666 17.9248 121.393 17.9248C120.879 17.9248 120.479 18.0776 120.191 18.3832C119.919 18.6736 119.783 19.1167 119.783 19.7127V20.8587L119.874 22.3945V32.2965H116.336ZM114.453 22.9904V20.2399H122.913V22.9904H114.453Z" fill="#322F40"/>
<path d="M108.966 32.2969V19.9652H112.504V32.2969H108.966ZM110.735 18.2461C110.085 18.2461 109.556 18.0551 109.148 17.6731C108.739 17.2911 108.535 16.8174 108.535 16.252C108.535 15.6866 108.739 15.2129 109.148 14.8308C109.556 14.4488 110.085 14.2578 110.735 14.2578C111.385 14.2578 111.915 14.4412 112.323 14.8079C112.731 15.1594 112.935 15.6178 112.935 16.1832C112.935 16.7792 112.731 17.2758 112.323 17.6731C111.93 18.0551 111.4 18.2461 110.735 18.2461Z" fill="#322F40"/>
<path d="M102.43 32.2967V15.2891H105.968V32.2967H102.43Z" fill="#322F40"/>
<path d="M94.1499 32.4797C93.1217 32.4797 92.2221 32.2505 91.4509 31.792C90.6798 31.3336 90.075 30.6383 89.6365 29.7062C89.2131 28.7588 89.0014 27.5669 89.0014 26.1305C89.0014 24.6788 89.2055 23.4869 89.6138 22.5547C90.022 21.6226 90.6117 20.9273 91.3829 20.4689C92.154 20.0105 93.0763 19.7812 94.1499 19.7812C95.299 19.7812 96.3272 20.0487 97.2344 20.5835C98.1568 21.103 98.8826 21.8365 99.4118 22.7839C99.9561 23.7314 100.228 24.8469 100.228 26.1305C100.228 27.4293 99.9561 28.5525 99.4118 29.4999C98.8826 30.4473 98.1568 31.1808 97.2344 31.7004C96.3272 32.2199 95.299 32.4797 94.1499 32.4797ZM86.9375 36.743V19.9646H90.3169V22.486L90.2488 26.1534L90.4757 29.7979V36.743H86.9375ZM93.5375 29.5457C94.1272 29.5457 94.6489 29.4082 95.1025 29.1332C95.5712 28.8581 95.9416 28.4684 96.2138 27.9642C96.5011 27.4446 96.6447 26.8334 96.6447 26.1305C96.6447 25.4123 96.5011 24.801 96.2138 24.2968C95.9416 23.7925 95.5712 23.4028 95.1025 23.1278C94.6489 22.8527 94.1272 22.7152 93.5375 22.7152C92.9478 22.7152 92.4186 22.8527 91.9499 23.1278C91.4812 23.4028 91.1107 23.7925 90.8385 24.2968C90.5664 24.801 90.4303 25.4123 90.4303 26.1305C90.4303 26.8334 90.5664 27.4446 90.8385 27.9642C91.1107 28.4684 91.4812 28.8581 91.9499 29.1332C92.4186 29.4082 92.9478 29.5457 93.5375 29.5457Z" fill="#322F40"/>
<path d="M78.3413 32.3879C77.3131 32.3879 76.4135 32.1587 75.6423 31.7002C74.8712 31.2418 74.2664 30.5465 73.8279 29.6144C73.4045 28.667 73.1928 27.4751 73.1928 26.0387C73.1928 24.587 73.397 23.3951 73.8052 22.4629C74.2135 21.5308 74.8031 20.8355 75.5743 20.3771C76.3454 19.9187 77.2678 19.6895 78.3413 19.6895C79.4904 19.6895 80.5186 19.9569 81.4258 20.4917C82.3482 21.0112 83.074 21.7447 83.6032 22.6921C84.1475 23.6396 84.4197 24.7551 84.4197 26.0387C84.4197 27.3375 84.1475 28.4607 83.6032 29.4081C83.074 30.3555 82.3482 31.089 81.4258 31.6086C80.5186 32.1281 79.4904 32.3879 78.3413 32.3879ZM71.1289 36.6513V19.8728H74.5083V22.3942L74.4403 26.0616L74.6671 29.7061V36.6513H71.1289ZM77.7289 29.4539C78.3186 29.4539 78.8403 29.3164 79.2939 29.0414C79.7626 28.7663 80.1331 28.3766 80.4052 27.8724C80.6925 27.3528 80.8362 26.7416 80.8362 26.0387C80.8362 25.3205 80.6925 24.7092 80.4052 24.205C80.1331 23.7007 79.7626 23.311 79.2939 23.036C78.8403 22.7609 78.3186 22.6234 77.7289 22.6234C77.1392 22.6234 76.61 22.7609 76.1413 23.036C75.6726 23.311 75.3021 23.7007 75.0299 24.205C74.7578 24.7092 74.6217 25.3205 74.6217 26.0387C74.6217 26.7416 74.7578 27.3528 75.0299 27.8724C75.3021 28.3766 75.6726 28.7663 76.1413 29.0414C76.61 29.3164 77.1392 29.4539 77.7289 29.4539Z" fill="#322F40"/>
<path d="M64.3799 32.2963V29.8896L64.1531 29.3624V25.0532C64.1531 24.2891 63.9188 23.6932 63.45 23.2653C62.9964 22.8374 62.2933 22.6235 61.3408 22.6235C60.6906 22.6235 60.048 22.7305 59.4129 22.9444C58.793 23.143 58.2638 23.4181 57.8253 23.7696L56.5552 21.2711C57.2205 20.7974 58.0218 20.4307 58.9593 20.1709C59.8968 19.9111 60.8493 19.7812 61.817 19.7812C63.6768 19.7812 65.1208 20.2244 66.149 21.1107C67.1772 21.997 67.6913 23.3799 67.6913 25.2595V32.2963H64.3799ZM60.6603 32.4797C59.7078 32.4797 58.8913 32.3192 58.2108 31.9983C57.5304 31.6621 57.0088 31.2114 56.6459 30.646C56.283 30.0806 56.1016 29.4464 56.1016 28.7435C56.1016 28.01 56.2754 27.3682 56.6232 26.8181C56.9861 26.268 57.5531 25.8401 58.3242 25.5345C59.0954 25.2136 60.1009 25.0532 61.3408 25.0532H64.5841V27.139H61.7263C60.8947 27.139 60.3201 27.2765 60.0026 27.5516C59.7002 27.8266 59.549 28.1705 59.549 28.583C59.549 29.0415 59.7229 29.4082 60.0706 29.6833C60.4335 29.943 60.9249 30.0729 61.5449 30.0729C62.1346 30.0729 62.6638 29.9354 63.1325 29.6604C63.6012 29.37 63.9414 28.9498 64.1531 28.3997L64.6975 30.05C64.4404 30.8446 63.9717 31.4482 63.2913 31.8608C62.6109 32.2734 61.7339 32.4797 60.6603 32.4797Z" fill="#322F40"/>
<defs>
<clipPath id="clip0_8932_13512">
<rect width="51" height="51" fill="white"/>
</clipPath>
</defs>
</svg>
